<?xml version="1.0" encoding="utf-8"?>
<!-- Generator: Adobe Illustrator 24.1.0, SVG Export Plug-In . SVG Version: 6.00 Build 0)  -->
<svg version="1.1" xmlns="http://www.w3.org/2000/svg" xmlns:xlink="http://www.w3.org/1999/xlink" x="0px" y="0px"
	 viewBox="0 0 616.7 181.5" style="enable-background:new 0 0 616.7 181.5;" xml:space="preserve">
<g id="Capa_1">
	<g>
		<g>
			<g>
				<path d="M277.8,109.8h-32.5v17.3h29.1v5.2h-29.1v17.8h32.9v5.2h-38.9v-50.8h38.5V109.8z"/>
				<path d="M333,104.5h5.9v50.8h-4.8l-34.4-41.7v41.7h-5.9v-50.8h5.6l33.6,40.7V104.5z"/>
				<path d="M423.9,104.5h6.5l-22.9,51.2h-5.3l-22.9-51.2h6.7l19,43.8L423.9,104.5z"/>
				<path d="M482.9,109.8h-32.5v17.3h29.1v5.2h-29.1v17.8h32.9v5.2h-38.9v-50.8h38.5V109.8z"/>
				<path d="M538,104.5h5.9v50.8h-4.8l-34.4-41.7v41.7h-5.9v-50.8h5.6l33.6,40.7V104.5z"/>
				<path d="M612.1,155.3h-6.5l-6.2-13.4h-29l-6.3,13.4h-6.2l24.3-51.2h5.6L612.1,155.3z M584.9,110.9l-12.2,25.9H597L584.9,110.9z"
					/>
			</g>
			<g>
				<path d="M277.2,73.1c-1.5,1.1-3.2,2-4.9,2.8c-1.8,0.8-3.6,1.4-5.6,1.8c-2,0.4-4.3,0.7-6.7,0.7c-3.9,0-7.5-0.7-10.8-2
					c-3.3-1.4-6.2-3.2-8.6-5.6c-2.4-2.3-4.3-5.1-5.7-8.3c-1.4-3.2-2.1-6.6-2.1-10.3c0-3.6,0.7-7,2.1-10.2c1.4-3.2,3.3-6,5.7-8.4
					c2.4-2.4,5.3-4.3,8.7-5.7c3.4-1.4,7-2.1,11-2.1c2.5,0,4.7,0.2,6.7,0.6c2,0.4,3.8,0.9,5.5,1.6c1.7,0.7,3.3,1.5,4.7,2.5
					c1.4,1,2.8,2.1,4.2,3.3l-4.2,4.2c-2.3-2-4.8-3.7-7.5-5c-2.7-1.3-5.8-2-9.6-2c-3,0-5.8,0.5-8.3,1.6c-2.6,1.1-4.8,2.5-6.7,4.4
					c-1.9,1.9-3.4,4.1-4.4,6.6c-1.1,2.5-1.6,5.3-1.6,8.2c0,3,0.5,5.7,1.6,8.3c1.1,2.6,2.5,4.8,4.4,6.7c1.9,1.9,4.1,3.4,6.7,4.5
					s5.3,1.6,8.3,1.6c3.7,0,6.9-0.6,9.6-1.9c2.7-1.3,5.3-3.1,7.9-5.4l4,3.7C280.1,70.8,278.7,72,277.2,73.1z"/>
				<path d="M337.5,55.8c0,3.7-0.5,7-1.6,9.8c-1.1,2.8-2.6,5.2-4.6,7c-2,1.9-4.4,3.3-7.1,4.2c-2.8,0.9-5.8,1.4-9.2,1.4
					c-3.4,0-6.4-0.5-9.2-1.4c-2.8-0.9-5.1-2.3-7.1-4.2c-2-1.9-3.5-4.2-4.6-6.9c-1.1-2.8-1.6-5.9-1.6-9.5V26.7h6.1v29.2
					c0,5.5,1.5,9.7,4.4,12.7c2.9,3,7,4.4,12.2,4.4c5,0,9-1.4,11.9-4.2c2.9-2.8,4.4-7,4.4-12.6V26.7h6.1V55.8z"/>
				<path d="M352.9,26.7h6.1v45.5h30.5v5.3h-36.6V26.7z"/>
				<path d="M414.5,77.5h-6.1V32h-18.2v-5.3h42.5V32h-18.2V77.5z"/>
				<path d="M489.5,55.8c0,3.7-0.5,7-1.6,9.8c-1.1,2.8-2.6,5.2-4.6,7c-2,1.9-4.4,3.3-7.1,4.2c-2.8,0.9-5.8,1.4-9.2,1.4
					c-3.4,0-6.4-0.5-9.2-1.4c-2.8-0.9-5.1-2.3-7.1-4.2c-2-1.9-3.5-4.2-4.6-6.9c-1.1-2.8-1.6-5.9-1.6-9.5V26.7h6.1v29.2
					c0,5.5,1.5,9.7,4.4,12.7c2.9,3,7,4.4,12.2,4.4c5,0,9-1.4,11.9-4.2c2.9-2.8,4.4-7,4.4-12.6V26.7h6.1V55.8z"/>
				<path d="M542.2,77.5l-15.7-19.7H511v19.7h-6.1V26.7h23.3c3,0,5.7,0.4,8.1,1.1s4.4,1.8,6.2,3.1c1.7,1.3,3,2.9,3.9,4.8
					c0.9,1.9,1.4,3.9,1.4,6.2c0,2.1-0.4,4-1.1,5.7c-0.7,1.7-1.7,3.1-3.1,4.4c-1.3,1.2-2.9,2.3-4.7,3.1c-1.8,0.8-3.8,1.4-5.9,1.7
					l16.6,20.7H542.2z M538,34.7c-2.4-1.8-5.8-2.7-10.2-2.7H511v20.7h16.7c2,0,3.9-0.2,5.6-0.7c1.7-0.5,3.2-1.2,4.4-2.1
					c1.2-0.9,2.2-2,2.9-3.3c0.7-1.3,1-2.8,1-4.4C541.7,38.9,540.5,36.4,538,34.7z"/>
				<path d="M612.3,77.5h-6.6l-6.3-13.4h-29.5l-6.4,13.4h-6.3l24.7-51.2h5.7L612.3,77.5z M584.7,33.1L572.3,59H597L584.7,33.1z"/>
			</g>
		</g>
		<path style="fill:#FCC630;" d="M90.7,8C45,8,8,45,8,90.7c0,45.7,37,82.7,82.7,82.7s82.7-37,82.7-82.7C173.5,45,136.4,8,90.7,8z
			 M144.9,102.9h-42v44.9H78.6v-44.9h-42V78.6h42V33.7h24.3v44.9h42V102.9z"/>
	</g>
</g>
<g id="Capa_2">
</g>
</svg>
